<?xml version="1.1" encoding="UTF-8"?>
<svg xmlns="http://www.w3.org/2000/svg"
    xmlns:latexdraw="http://latexdraw.sourceforge.net/namespaces/latexdraw"
    version="1.1" baseProfile="full">
    <g>
        <g latexdraw:type="drawing" id="id1707459679">
            <g latexdraw:type="joinedLines" id="id2054266190">
                <polyline
                    points="100.0,80.0 300.0,100.0 500.0,80.0 700.0,140.0 900.0,80.0 900.0,80.0 "
                    stroke-width="1.5" stroke="red" fill="none"
                    stroke-dasharray="8.819444444444445, 5.291666666666667"
                    latexdraw:rotationAngle="0.0" marker-end="url(#arrow1-2054266190)"/>
            </g>
            <g latexdraw:type="joinedLines" id="id939144993">
                <polyline
                    points="100.0,140.0 300.0,160.0 500.0,240.0 700.0,60.0 900.0,160.0 900.0,160.0 "
                    stroke-width="1.5999999999999999" stroke="blue"
                    fill="none"
                    stroke-dasharray="8.819444444444445, 5.291666666666667" latexdraw:rotationAngle="0.0"/>
            </g>
            <g latexdraw:type="joinedLines" id="id1002864688">
                <polyline
                    points="300.0,480.0 500.0,500.0 700.0,280.0 900.0,280.0 900.0,280.0 "
                    stroke-width="1.5" stroke="#be5151" fill="none"
                    stroke-dasharray="8.819444444444445, 5.291666666666667" latexdraw:rotationAngle="0.0"/>
            </g>
            <g latexdraw:type="joinedLines" id="id789711858">
                <polyline
                    points="100.0,260.0 300.0,420.0 500.0,300.0 500.0,300.0 "
                    stroke-width="1.5" stroke="#10ac97" fill="none"
                    stroke-dasharray="8.819444444444445, 5.291666666666667" latexdraw:rotationAngle="0.0"/>
            </g>
            <g latexdraw:type="joinedLines" id="id1501522099">
                <polyline
                    points="300.0,300.0 500.0,140.0 700.0,180.0 700.0,180.0 "
                    stroke-width="1.5" stroke="lime" fill="none"
                    stroke-dasharray="8.819444444444445, 5.291666666666667" latexdraw:rotationAngle="0.0"/>
            </g>
            <g latexdraw:type="joinedLines" id="id1062870914">
                <polyline
                    points="300.0,380.0 500.0,460.0 700.0,360.0 900.0,340.0 900.0,340.0 "
                    stroke-width="1.5" stroke="#aa1ce5" fill="none"
                    stroke-dasharray="8.819444444444445, 5.291666666666667" latexdraw:rotationAngle="0.0"/>
            </g>
            <g latexdraw:type="joinedLines" id="id814931801">
                <polyline points="100.0,380.0 300.0,240.0 300.0,240.0 "
                    stroke-width="1.5" stroke="#a20ac8" fill="none"
                    stroke-dasharray="8.819444444444445, 5.291666666666667" latexdraw:rotationAngle="0.0"/>
            </g>
            <g latexdraw:type="joinedLines" id="id266342178">
                <polyline
                    points="298.64565217391294,40.0 298.64565217391294,540.0 "
                    stroke-width="2.0" stroke="black" latexdraw:rotationAngle="0.0"/>
            </g>
            <g latexdraw:type="joinedLines" id="id762889373">
                <polyline
                    points="498.6804347826087,40.0 498.6804347826087,540.0 "
                    stroke-width="2.0" stroke="black" latexdraw:rotationAngle="0.0"/>
            </g>
            <g latexdraw:type="joinedLines" id="id1110538431">
                <polyline
                    points="698.715217391304,40.0 698.715217391304,540.0 "
                    stroke-width="2.0" stroke="black" latexdraw:rotationAngle="0.0"/>
            </g>
            <g latexdraw:type="joinedLines" id="id1694437303">
                <polyline points="898.75,40.0 898.75,540.0 "
                    stroke-width="2.0" stroke="black" latexdraw:rotationAngle="0.0"/>
            </g>
            <g latexdraw:type="dot" id="id1802081557"
                latexdraw:size="10.0" latexdraw:dotShape="*" latexdraw:position="300.0 100.0">
                <path
                    d="M 304.6153846153846 100.0 C 304.6153846153846 102.54900653768058 302.54900653768055 104.61538461538461 300.0 104.61538461538461 C 297.4509934623194 104.61538461538461 295.38461538461536 102.54900653768058 295.38461538461536 100.0 C 295.38461538461536 97.45099346231942 297.4509934623194 95.38461538461539 300.0 95.38461538461539 C 302.54900653768055 95.38461538461539 304.6153846153846 97.45099346231942 304.6153846153846 100.0 z "
                    fill="black" stroke-linecap="square"
                    stroke-linejoin="butt" stroke-width="0.625"
                    stroke-miterlimit="10.0" stroke-dashoffset="0.0" stroke="black"/>
            </g>
            <g latexdraw:type="dot" id="id91512940"
                latexdraw:size="10.0" latexdraw:dotShape="*" latexdraw:position="300.0 160.0">
                <path
                    d="M 304.6153846153846 160.0 C 304.6153846153846 162.54900653768058 302.54900653768055 164.6153846153846 300.0 164.6153846153846 C 297.4509934623194 164.6153846153846 295.38461538461536 162.54900653768058 295.38461538461536 160.0 C 295.38461538461536 157.45099346231942 297.4509934623194 155.3846153846154 300.0 155.3846153846154 C 302.54900653768055 155.3846153846154 304.6153846153846 157.45099346231942 304.6153846153846 160.0 z "
                    fill="black" stroke-linecap="square"
                    stroke-linejoin="butt" stroke-width="0.625"
                    stroke-miterlimit="10.0" stroke-dashoffset="0.0" stroke="black"/>
            </g>
            <g latexdraw:type="dot" id="id1353023563"
                latexdraw:size="10.0" latexdraw:dotShape="*" latexdraw:position="300.0 240.0">
                <path
                    d="M 304.6153846153846 240.0 C 304.6153846153846 242.54900653768058 302.54900653768055 244.6153846153846 300.0 244.6153846153846 C 297.4509934623194 244.6153846153846 295.38461538461536 242.54900653768058 295.38461538461536 240.0 C 295.38461538461536 237.45099346231942 297.4509934623194 235.3846153846154 300.0 235.3846153846154 C 302.54900653768055 235.3846153846154 304.6153846153846 237.45099346231942 304.6153846153846 240.0 z "
                    fill="black" stroke-linecap="square"
                    stroke-linejoin="butt" stroke-width="0.625"
                    stroke-miterlimit="10.0" stroke-dashoffset="0.0" stroke="black"/>
            </g>
            <g latexdraw:type="dot" id="id1759922598"
                latexdraw:size="10.0" latexdraw:dotShape="*" latexdraw:position="300.0 300.0">
                <path
                    d="M 304.6153846153846 300.0 C 304.6153846153846 302.54900653768055 302.54900653768055 304.6153846153846 300.0 304.6153846153846 C 297.4509934623194 304.6153846153846 295.38461538461536 302.54900653768055 295.38461538461536 300.0 C 295.38461538461536 297.4509934623194 297.4509934623194 295.38461538461536 300.0 295.38461538461536 C 302.54900653768055 295.38461538461536 304.6153846153846 297.4509934623194 304.6153846153846 300.0 z "
                    fill="black" stroke-linecap="square"
                    stroke-linejoin="butt" stroke-width="0.625"
                    stroke-miterlimit="10.0" stroke-dashoffset="0.0" stroke="black"/>
            </g>
            <g latexdraw:type="dot" id="id1088883610"
                latexdraw:size="10.0" latexdraw:dotShape="*" latexdraw:position="300.0 380.0">
                <path
                    d="M 304.6153846153846 380.0 C 304.6153846153846 382.54900653768055 302.54900653768055 384.6153846153846 300.0 384.6153846153846 C 297.4509934623194 384.6153846153846 295.38461538461536 382.54900653768055 295.38461538461536 380.0 C 295.38461538461536 377.4509934623194 297.4509934623194 375.38461538461536 300.0 375.38461538461536 C 302.54900653768055 375.38461538461536 304.6153846153846 377.4509934623194 304.6153846153846 380.0 z "
                    fill="black" stroke-linecap="square"
                    stroke-linejoin="butt" stroke-width="0.625"
                    stroke-miterlimit="10.0" stroke-dashoffset="0.0" stroke="black"/>
            </g>
            <g latexdraw:type="dot" id="id1723233514"
                latexdraw:size="10.0" latexdraw:dotShape="*" latexdraw:position="300.0 420.0">
                <path
                    d="M 304.6153846153846 420.0 C 304.6153846153846 422.54900653768055 302.54900653768055 424.6153846153846 300.0 424.6153846153846 C 297.4509934623194 424.6153846153846 295.38461538461536 422.54900653768055 295.38461538461536 420.0 C 295.38461538461536 417.4509934623194 297.4509934623194 415.38461538461536 300.0 415.38461538461536 C 302.54900653768055 415.38461538461536 304.6153846153846 417.4509934623194 304.6153846153846 420.0 z "
                    fill="black" stroke-linecap="square"
                    stroke-linejoin="butt" stroke-width="0.625"
                    stroke-miterlimit="10.0" stroke-dashoffset="0.0" stroke="black"/>
            </g>
            <g latexdraw:type="dot" id="id451741615"
                latexdraw:size="10.0" latexdraw:dotShape="*" latexdraw:position="300.0 480.0">
                <path
                    d="M 304.6153846153846 480.0 C 304.6153846153846 482.54900653768055 302.54900653768055 484.6153846153846 300.0 484.6153846153846 C 297.4509934623194 484.6153846153846 295.38461538461536 482.54900653768055 295.38461538461536 480.0 C 295.38461538461536 477.4509934623194 297.4509934623194 475.38461538461536 300.0 475.38461538461536 C 302.54900653768055 475.38461538461536 304.6153846153846 477.4509934623194 304.6153846153846 480.0 z "
                    fill="black" stroke-linecap="square"
                    stroke-linejoin="butt" stroke-width="0.625"
                    stroke-miterlimit="10.0" stroke-dashoffset="0.0" stroke="black"/>
            </g>
            <g latexdraw:type="dot" id="id1075627565"
                latexdraw:size="10.0" latexdraw:dotShape="*" latexdraw:position="500.0 80.0">
                <path
                    d="M 504.6153846153846 80.0 C 504.6153846153846 82.54900653768058 502.54900653768055 84.61538461538461 500.0 84.61538461538461 C 497.4509934623194 84.61538461538461 495.38461538461536 82.54900653768058 495.38461538461536 80.0 C 495.38461538461536 77.45099346231942 497.4509934623194 75.38461538461539 500.0 75.38461538461539 C 502.54900653768055 75.38461538461539 504.6153846153846 77.45099346231942 504.6153846153846 80.0 z "
                    fill="black" stroke-linecap="square"
                    stroke-linejoin="butt" stroke-width="0.625"
                    stroke-miterlimit="10.0" stroke-dashoffset="0.0" stroke="black"/>
            </g>
            <g latexdraw:type="dot" id="id954187375"
                latexdraw:size="10.0" latexdraw:dotShape="*" latexdraw:position="500.0 140.0">
                <path
                    d="M 504.6153846153846 140.0 C 504.6153846153846 142.54900653768058 502.54900653768055 144.6153846153846 500.0 144.6153846153846 C 497.4509934623194 144.6153846153846 495.38461538461536 142.54900653768058 495.38461538461536 140.0 C 495.38461538461536 137.45099346231942 497.4509934623194 135.3846153846154 500.0 135.3846153846154 C 502.54900653768055 135.3846153846154 504.6153846153846 137.45099346231942 504.6153846153846 140.0 z "
                    fill="black" stroke-linecap="square"
                    stroke-linejoin="butt" stroke-width="0.625"
                    stroke-miterlimit="10.0" stroke-dashoffset="0.0" stroke="black"/>
            </g>
            <g latexdraw:type="dot" id="id1830526138"
                latexdraw:size="10.0" latexdraw:dotShape="*" latexdraw:position="500.0 240.0">
                <path
                    d="M 504.6153846153846 240.0 C 504.6153846153846 242.54900653768058 502.54900653768055 244.6153846153846 500.0 244.6153846153846 C 497.4509934623194 244.6153846153846 495.38461538461536 242.54900653768058 495.38461538461536 240.0 C 495.38461538461536 237.45099346231942 497.4509934623194 235.3846153846154 500.0 235.3846153846154 C 502.54900653768055 235.3846153846154 504.6153846153846 237.45099346231942 504.6153846153846 240.0 z "
                    fill="black" stroke-linecap="square"
                    stroke-linejoin="butt" stroke-width="0.625"
                    stroke-miterlimit="10.0" stroke-dashoffset="0.0" stroke="black"/>
            </g>
            <g latexdraw:type="dot" id="id523845321"
                latexdraw:size="10.0" latexdraw:dotShape="*" latexdraw:position="500.0 300.0">
                <path
                    d="M 504.6153846153846 300.0 C 504.6153846153846 302.54900653768055 502.54900653768055 304.6153846153846 500.0 304.6153846153846 C 497.4509934623194 304.6153846153846 495.38461538461536 302.54900653768055 495.38461538461536 300.0 C 495.38461538461536 297.4509934623194 497.4509934623194 295.38461538461536 500.0 295.38461538461536 C 502.54900653768055 295.38461538461536 504.6153846153846 297.4509934623194 504.6153846153846 300.0 z "
                    fill="black" stroke-linecap="square"
                    stroke-linejoin="butt" stroke-width="0.625"
                    stroke-miterlimit="10.0" stroke-dashoffset="0.0" stroke="black"/>
            </g>
            <g latexdraw:type="dot" id="id959622829"
                latexdraw:size="10.0" latexdraw:dotShape="*" latexdraw:position="500.0 380.0">
                <path
                    d="M 504.6153846153846 380.0 C 504.6153846153846 382.54900653768055 502.54900653768055 384.6153846153846 500.0 384.6153846153846 C 497.4509934623194 384.6153846153846 495.38461538461536 382.54900653768055 495.38461538461536 380.0 C 495.38461538461536 377.4509934623194 497.4509934623194 375.38461538461536 500.0 375.38461538461536 C 502.54900653768055 375.38461538461536 504.6153846153846 377.4509934623194 504.6153846153846 380.0 z "
                    fill="black" stroke-linecap="square"
                    stroke-linejoin="butt" stroke-width="0.625"
                    stroke-miterlimit="10.0" stroke-dashoffset="0.0" stroke="black"/>
            </g>
            <g latexdraw:type="dot" id="id2086359842"
                latexdraw:size="10.0" latexdraw:dotShape="*" latexdraw:position="500.0 460.0">
                <path
                    d="M 504.6153846153846 460.0 C 504.6153846153846 462.54900653768055 502.54900653768055 464.6153846153846 500.0 464.6153846153846 C 497.4509934623194 464.6153846153846 495.38461538461536 462.54900653768055 495.38461538461536 460.0 C 495.38461538461536 457.4509934623194 497.4509934623194 455.38461538461536 500.0 455.38461538461536 C 502.54900653768055 455.38461538461536 504.6153846153846 457.4509934623194 504.6153846153846 460.0 z "
                    fill="black" stroke-linecap="square"
                    stroke-linejoin="butt" stroke-width="0.625"
                    stroke-miterlimit="10.0" stroke-dashoffset="0.0" stroke="black"/>
            </g>
            <g latexdraw:type="dot" id="id1293221471"
                latexdraw:size="10.0" latexdraw:dotShape="*" latexdraw:position="500.0 500.0">
                <path
                    d="M 504.6153846153846 500.0 C 504.6153846153846 502.54900653768055 502.54900653768055 504.6153846153846 500.0 504.6153846153846 C 497.4509934623194 504.6153846153846 495.38461538461536 502.54900653768055 495.38461538461536 500.0 C 495.38461538461536 497.4509934623194 497.4509934623194 495.38461538461536 500.0 495.38461538461536 C 502.54900653768055 495.38461538461536 504.6153846153846 497.4509934623194 504.6153846153846 500.0 z "
                    fill="black" stroke-linecap="square"
                    stroke-linejoin="butt" stroke-width="0.625"
                    stroke-miterlimit="10.0" stroke-dashoffset="0.0" stroke="black"/>
            </g>
            <g latexdraw:type="dot" id="id462245442"
                latexdraw:size="10.0" latexdraw:dotShape="*" latexdraw:position="700.0 60.0">
                <path
                    d="M 704.6153846153846 60.0 C 704.6153846153846 62.54900653768058 702.5490065376806 64.61538461538461 700.0 64.61538461538461 C 697.4509934623194 64.61538461538461 695.3846153846154 62.54900653768058 695.3846153846154 60.0 C 695.3846153846154 57.45099346231942 697.4509934623194 55.38461538461539 700.0 55.38461538461539 C 702.5490065376806 55.38461538461539 704.6153846153846 57.45099346231942 704.6153846153846 60.0 z "
                    fill="black" stroke-linecap="square"
                    stroke-linejoin="butt" stroke-width="0.625"
                    stroke-miterlimit="10.0" stroke-dashoffset="0.0" stroke="black"/>
            </g>
            <g latexdraw:type="dot" id="id937872472"
                latexdraw:size="10.0" latexdraw:dotShape="*" latexdraw:position="700.0 140.0">
                <path
                    d="M 704.6153846153846 140.0 C 704.6153846153846 142.54900653768058 702.5490065376806 144.6153846153846 700.0 144.6153846153846 C 697.4509934623194 144.6153846153846 695.3846153846154 142.54900653768058 695.3846153846154 140.0 C 695.3846153846154 137.45099346231942 697.4509934623194 135.3846153846154 700.0 135.3846153846154 C 702.5490065376806 135.3846153846154 704.6153846153846 137.45099346231942 704.6153846153846 140.0 z "
                    fill="black" stroke-linecap="square"
                    stroke-linejoin="butt" stroke-width="0.625"
                    stroke-miterlimit="10.0" stroke-dashoffset="0.0" stroke="black"/>
            </g>
            <g latexdraw:type="dot" id="id285363141"
                latexdraw:size="10.0" latexdraw:dotShape="*" latexdraw:position="700.0 180.0">
                <path
                    d="M 704.6153846153846 180.0 C 704.6153846153846 182.54900653768058 702.5490065376806 184.6153846153846 700.0 184.6153846153846 C 697.4509934623194 184.6153846153846 695.3846153846154 182.54900653768058 695.3846153846154 180.0 C 695.3846153846154 177.45099346231942 697.4509934623194 175.3846153846154 700.0 175.3846153846154 C 702.5490065376806 175.3846153846154 704.6153846153846 177.45099346231942 704.6153846153846 180.0 z "
                    fill="black" stroke-linecap="square"
                    stroke-linejoin="butt" stroke-width="0.625"
                    stroke-miterlimit="10.0" stroke-dashoffset="0.0" stroke="black"/>
            </g>
            <g latexdraw:type="dot" id="id2064558524"
                latexdraw:size="10.0" latexdraw:dotShape="*" latexdraw:position="700.0 220.0">
                <path
                    d="M 704.6153846153846 220.0 C 704.6153846153846 222.54900653768058 702.5490065376806 224.6153846153846 700.0 224.6153846153846 C 697.4509934623194 224.6153846153846 695.3846153846154 222.54900653768058 695.3846153846154 220.0 C 695.3846153846154 217.45099346231942 697.4509934623194 215.3846153846154 700.0 215.3846153846154 C 702.5490065376806 215.3846153846154 704.6153846153846 217.45099346231942 704.6153846153846 220.0 z "
                    fill="black" stroke-linecap="square"
                    stroke-linejoin="butt" stroke-width="0.625"
                    stroke-miterlimit="10.0" stroke-dashoffset="0.0" stroke="black"/>
            </g>
            <g latexdraw:type="dot" id="id176166849"
                latexdraw:size="10.0" latexdraw:dotShape="*" latexdraw:position="700.0 280.0">
                <path
                    d="M 704.6153846153846 280.0 C 704.6153846153846 282.54900653768055 702.5490065376806 284.6153846153846 700.0 284.6153846153846 C 697.4509934623194 284.6153846153846 695.3846153846154 282.54900653768055 695.3846153846154 280.0 C 695.3846153846154 277.4509934623194 697.4509934623194 275.38461538461536 700.0 275.38461538461536 C 702.5490065376806 275.38461538461536 704.6153846153846 277.4509934623194 704.6153846153846 280.0 z "
                    fill="black" stroke-linecap="square"
                    stroke-linejoin="butt" stroke-width="0.625"
                    stroke-miterlimit="10.0" stroke-dashoffset="0.0" stroke="black"/>
            </g>
            <g latexdraw:type="dot" id="id184913605"
                latexdraw:size="10.0" latexdraw:dotShape="*" latexdraw:position="700.0 360.0">
                <path
                    d="M 704.6153846153846 360.0 C 704.6153846153846 362.54900653768055 702.5490065376806 364.6153846153846 700.0 364.6153846153846 C 697.4509934623194 364.6153846153846 695.3846153846154 362.54900653768055 695.3846153846154 360.0 C 695.3846153846154 357.4509934623194 697.4509934623194 355.38461538461536 700.0 355.38461538461536 C 702.5490065376806 355.38461538461536 704.6153846153846 357.4509934623194 704.6153846153846 360.0 z "
                    fill="black" stroke-linecap="square"
                    stroke-linejoin="butt" stroke-width="0.625"
                    stroke-miterlimit="10.0" stroke-dashoffset="0.0" stroke="black"/>
            </g>
            <g latexdraw:type="dot" id="id140156931"
                latexdraw:size="10.0" latexdraw:dotShape="*" latexdraw:position="700.0 420.0">
                <path
                    d="M 704.6153846153846 420.0 C 704.6153846153846 422.54900653768055 702.5490065376806 424.6153846153846 700.0 424.6153846153846 C 697.4509934623194 424.6153846153846 695.3846153846154 422.54900653768055 695.3846153846154 420.0 C 695.3846153846154 417.4509934623194 697.4509934623194 415.38461538461536 700.0 415.38461538461536 C 702.5490065376806 415.38461538461536 704.6153846153846 417.4509934623194 704.6153846153846 420.0 z "
                    fill="black" stroke-linecap="square"
                    stroke-linejoin="butt" stroke-width="0.625"
                    stroke-miterlimit="10.0" stroke-dashoffset="0.0" stroke="black"/>
            </g>
            <g latexdraw:type="dot" id="id110607357"
                latexdraw:size="10.0" latexdraw:dotShape="*" latexdraw:position="700.0 460.0">
                <path
                    d="M 704.6153846153846 460.0 C 704.6153846153846 462.54900653768055 702.5490065376806 464.6153846153846 700.0 464.6153846153846 C 697.4509934623194 464.6153846153846 695.3846153846154 462.54900653768055 695.3846153846154 460.0 C 695.3846153846154 457.4509934623194 697.4509934623194 455.38461538461536 700.0 455.38461538461536 C 702.5490065376806 455.38461538461536 704.6153846153846 457.4509934623194 704.6153846153846 460.0 z "
                    fill="black" stroke-linecap="square"
                    stroke-linejoin="butt" stroke-width="0.625"
                    stroke-miterlimit="10.0" stroke-dashoffset="0.0" stroke="black"/>
            </g>
            <g latexdraw:type="dot" id="id203660017"
                latexdraw:size="10.0" latexdraw:dotShape="*" latexdraw:position="900.0 520.0">
                <path
                    d="M 904.6153846153846 520.0 C 904.6153846153846 522.5490065376806 902.5490065376806 524.6153846153846 900.0 524.6153846153846 C 897.4509934623194 524.6153846153846 895.3846153846154 522.5490065376806 895.3846153846154 520.0 C 895.3846153846154 517.4509934623194 897.4509934623194 515.3846153846154 900.0 515.3846153846154 C 902.5490065376806 515.3846153846154 904.6153846153846 517.4509934623194 904.6153846153846 520.0 z "
                    fill="black" stroke-linecap="square"
                    stroke-linejoin="butt" stroke-width="0.625"
                    stroke-miterlimit="10.0" stroke-dashoffset="0.0" stroke="black"/>
            </g>
            <g latexdraw:type="dot" id="id737631766"
                latexdraw:size="10.0" latexdraw:dotShape="*" latexdraw:position="900.0 80.0">
                <path
                    d="M 904.6153846153846 80.0 C 904.6153846153846 82.54900653768058 902.5490065376806 84.61538461538461 900.0 84.61538461538461 C 897.4509934623194 84.61538461538461 895.3846153846154 82.54900653768058 895.3846153846154 80.0 C 895.3846153846154 77.45099346231942 897.4509934623194 75.38461538461539 900.0 75.38461538461539 C 902.5490065376806 75.38461538461539 904.6153846153846 77.45099346231942 904.6153846153846 80.0 z "
                    fill="black" stroke-linecap="square"
                    stroke-linejoin="butt" stroke-width="0.625"
                    stroke-miterlimit="10.0" stroke-dashoffset="0.0" stroke="black"/>
            </g>
            <g latexdraw:type="dot" id="id1995487699"
                latexdraw:size="10.0" latexdraw:dotShape="*" latexdraw:position="900.0 160.0">
                <path
                    d="M 904.6153846153846 160.0 C 904.6153846153846 162.54900653768058 902.5490065376806 164.6153846153846 900.0 164.6153846153846 C 897.4509934623194 164.6153846153846 895.3846153846154 162.54900653768058 895.3846153846154 160.0 C 895.3846153846154 157.45099346231942 897.4509934623194 155.3846153846154 900.0 155.3846153846154 C 902.5490065376806 155.3846153846154 904.6153846153846 157.45099346231942 904.6153846153846 160.0 z "
                    fill="black" stroke-linecap="square"
                    stroke-linejoin="butt" stroke-width="0.625"
                    stroke-miterlimit="10.0" stroke-dashoffset="0.0" stroke="black"/>
            </g>
            <g latexdraw:type="dot" id="id1292086435"
                latexdraw:size="10.0" latexdraw:dotShape="*" latexdraw:position="900.0 220.0">
                <path
                    d="M 904.6153846153846 220.0 C 904.6153846153846 222.54900653768058 902.5490065376806 224.6153846153846 900.0 224.6153846153846 C 897.4509934623194 224.6153846153846 895.3846153846154 222.54900653768058 895.3846153846154 220.0 C 895.3846153846154 217.45099346231942 897.4509934623194 215.3846153846154 900.0 215.3846153846154 C 902.5490065376806 215.3846153846154 904.6153846153846 217.45099346231942 904.6153846153846 220.0 z "
                    fill="black" stroke-linecap="square"
                    stroke-linejoin="butt" stroke-width="0.625"
                    stroke-miterlimit="10.0" stroke-dashoffset="0.0" stroke="black"/>
            </g>
            <g latexdraw:type="dot" id="id1567052768"
                latexdraw:size="10.0" latexdraw:dotShape="*" latexdraw:position="900.0 340.0">
                <path
                    d="M 904.6153846153846 340.0 C 904.6153846153846 342.54900653768055 902.5490065376806 344.6153846153846 900.0 344.6153846153846 C 897.4509934623194 344.6153846153846 895.3846153846154 342.54900653768055 895.3846153846154 340.0 C 895.3846153846154 337.4509934623194 897.4509934623194 335.38461538461536 900.0 335.38461538461536 C 902.5490065376806 335.38461538461536 904.6153846153846 337.4509934623194 904.6153846153846 340.0 z "
                    fill="black" stroke-linecap="square"
                    stroke-linejoin="butt" stroke-width="0.625"
                    stroke-miterlimit="10.0" stroke-dashoffset="0.0" stroke="black"/>
            </g>
            <g latexdraw:type="dot" id="id1290908084"
                latexdraw:size="10.0" latexdraw:dotShape="*" latexdraw:position="900.0 280.0">
                <path
                    d="M 904.6153846153846 280.0 C 904.6153846153846 282.54900653768055 902.5490065376806 284.6153846153846 900.0 284.6153846153846 C 897.4509934623194 284.6153846153846 895.3846153846154 282.54900653768055 895.3846153846154 280.0 C 895.3846153846154 277.4509934623194 897.4509934623194 275.38461538461536 900.0 275.38461538461536 C 902.5490065376806 275.38461538461536 904.6153846153846 277.4509934623194 904.6153846153846 280.0 z "
                    fill="black" stroke-linecap="square"
                    stroke-linejoin="butt" stroke-width="0.625"
                    stroke-miterlimit="10.0" stroke-dashoffset="0.0" stroke="black"/>
            </g>
            <g latexdraw:type="dot" id="id1060943832"
                latexdraw:size="10.0" latexdraw:dotShape="*" latexdraw:position="900.0 420.0">
                <path
                    d="M 904.6153846153846 420.0 C 904.6153846153846 422.54900653768055 902.5490065376806 424.6153846153846 900.0 424.6153846153846 C 897.4509934623194 424.6153846153846 895.3846153846154 422.54900653768055 895.3846153846154 420.0 C 895.3846153846154 417.4509934623194 897.4509934623194 415.38461538461536 900.0 415.38461538461536 C 902.5490065376806 415.38461538461536 904.6153846153846 417.4509934623194 904.6153846153846 420.0 z "
                    fill="black" stroke-linecap="square"
                    stroke-linejoin="butt" stroke-width="0.625"
                    stroke-miterlimit="10.0" stroke-dashoffset="0.0" stroke="black"/>
            </g>
            <g latexdraw:type="joinedLines" id="id1871340072">
                <polyline
                    points="500.0,380.0 700.0,420.0 900.0,220.0 900.0,220.0 "
                    stroke-width="1.5" stroke="#e06c2b" fill="none"
                    stroke-dasharray="8.819444444444445, 5.291666666666667" latexdraw:rotationAngle="0.0"/>
            </g>
            <g latexdraw:type="joinedLines" id="id135648362">
                <polyline points="700.0,220.0 900.0,420.0 900.0,420.0 "
                    stroke-width="1.5" stroke="blue" fill="none"
                    stroke-dasharray="8.819444444444445, 5.291666666666667" latexdraw:rotationAngle="0.0"/>
            </g>
            <g latexdraw:type="joinedLines" id="id1227401421">
                <polyline points="100.0,40.0 100.0,540.0 "
                    stroke-width="2.0" stroke="black" latexdraw:rotationAngle="0.0"/>
            </g>
            <g latexdraw:type="dot" id="id326124615"
                latexdraw:size="10.0" latexdraw:dotShape="*" latexdraw:position="100.0 80.0">
                <path
                    d="M 104.61538461538461 80.0 C 104.61538461538461 82.54900653768058 102.54900653768058 84.61538461538461 100.0 84.61538461538461 C 97.45099346231942 84.61538461538461 95.38461538461539 82.54900653768058 95.38461538461539 80.0 C 95.38461538461539 77.45099346231942 97.45099346231942 75.38461538461539 100.0 75.38461538461539 C 102.54900653768058 75.38461538461539 104.61538461538461 77.45099346231942 104.61538461538461 80.0 z "
                    fill="black" stroke-linecap="square"
                    stroke-linejoin="butt" stroke-width="0.625"
                    stroke-miterlimit="10.0" stroke-dashoffset="0.0" stroke="black"/>
            </g>
            <g latexdraw:type="dot" id="id794296099"
                latexdraw:size="10.0" latexdraw:dotShape="*" latexdraw:position="100.0 140.0">
                <path
                    d="M 104.61538461538461 140.0 C 104.61538461538461 142.54900653768058 102.54900653768058 144.6153846153846 100.0 144.6153846153846 C 97.45099346231942 144.6153846153846 95.38461538461539 142.54900653768058 95.38461538461539 140.0 C 95.38461538461539 137.45099346231942 97.45099346231942 135.3846153846154 100.0 135.3846153846154 C 102.54900653768058 135.3846153846154 104.61538461538461 137.45099346231942 104.61538461538461 140.0 z "
                    fill="black" stroke-linecap="square"
                    stroke-linejoin="butt" stroke-width="0.625"
                    stroke-miterlimit="10.0" stroke-dashoffset="0.0" stroke="black"/>
            </g>
            <g latexdraw:type="dot" id="id164091943"
                latexdraw:size="10.0" latexdraw:dotShape="*" latexdraw:position="100.0 200.0">
                <path
                    d="M 104.61538461538461 200.0 C 104.61538461538461 202.54900653768058 102.54900653768058 204.6153846153846 100.0 204.6153846153846 C 97.45099346231942 204.6153846153846 95.38461538461539 202.54900653768058 95.38461538461539 200.0 C 95.38461538461539 197.45099346231942 97.45099346231942 195.3846153846154 100.0 195.3846153846154 C 102.54900653768058 195.3846153846154 104.61538461538461 197.45099346231942 104.61538461538461 200.0 z "
                    fill="black" stroke-linecap="square"
                    stroke-linejoin="butt" stroke-width="0.625"
                    stroke-miterlimit="10.0" stroke-dashoffset="0.0" stroke="black"/>
            </g>
            <g latexdraw:type="dot" id="id86337298"
                latexdraw:size="10.0" latexdraw:dotShape="*" latexdraw:position="100.0 260.0">
                <path
                    d="M 104.61538461538461 260.0 C 104.61538461538461 262.5490065376806 102.54900653768058 264.61538461538464 100.0 264.61538461538464 C 97.45099346231942 264.61538461538464 95.38461538461539 262.5490065376806 95.38461538461539 260.0 C 95.38461538461539 257.4509934623194 97.45099346231942 255.3846153846154 100.0 255.3846153846154 C 102.54900653768058 255.3846153846154 104.61538461538461 257.4509934623194 104.61538461538461 260.0 z "
                    fill="black" stroke-linecap="square"
                    stroke-linejoin="butt" stroke-width="0.625"
                    stroke-miterlimit="10.0" stroke-dashoffset="0.0" stroke="black"/>
            </g>
            <g latexdraw:type="dot" id="id350636429"
                latexdraw:size="10.0" latexdraw:dotShape="*" latexdraw:position="100.0 320.0">
                <path
                    d="M 104.61538461538461 320.0 C 104.61538461538461 322.54900653768055 102.54900653768058 324.6153846153846 100.0 324.6153846153846 C 97.45099346231942 324.6153846153846 95.38461538461539 322.54900653768055 95.38461538461539 320.0 C 95.38461538461539 317.4509934623194 97.45099346231942 315.38461538461536 100.0 315.38461538461536 C 102.54900653768058 315.38461538461536 104.61538461538461 317.4509934623194 104.61538461538461 320.0 z "
                    fill="black" stroke-linecap="square"
                    stroke-linejoin="butt" stroke-width="0.625"
                    stroke-miterlimit="10.0" stroke-dashoffset="0.0" stroke="black"/>
            </g>
            <g latexdraw:type="dot" id="id72880853"
                latexdraw:size="10.0" latexdraw:dotShape="*" latexdraw:position="100.0 380.0">
                <path
                    d="M 104.61538461538461 380.0 C 104.61538461538461 382.54900653768055 102.54900653768058 384.6153846153846 100.0 384.6153846153846 C 97.45099346231942 384.6153846153846 95.38461538461539 382.54900653768055 95.38461538461539 380.0 C 95.38461538461539 377.4509934623194 97.45099346231942 375.38461538461536 100.0 375.38461538461536 C 102.54900653768058 375.38461538461536 104.61538461538461 377.4509934623194 104.61538461538461 380.0 z "
                    fill="black" stroke-linecap="square"
                    stroke-linejoin="butt" stroke-width="0.625"
                    stroke-miterlimit="10.0" stroke-dashoffset="0.0" stroke="black"/>
            </g>
            <g latexdraw:type="dot" id="id870966425"
                latexdraw:size="10.0" latexdraw:dotShape="*" latexdraw:position="100.0 500.0">
                <path
                    d="M 104.61538461538461 500.0 C 104.61538461538461 502.54900653768055 102.54900653768058 504.6153846153846 100.0 504.6153846153846 C 97.45099346231942 504.6153846153846 95.38461538461539 502.54900653768055 95.38461538461539 500.0 C 95.38461538461539 497.4509934623194 97.45099346231942 495.38461538461536 100.0 495.38461538461536 C 102.54900653768058 495.38461538461536 104.61538461538461 497.4509934623194 104.61538461538461 500.0 z "
                    fill="black" stroke-linecap="square"
                    stroke-linejoin="butt" stroke-width="0.625"
                    stroke-miterlimit="10.0" stroke-dashoffset="0.0" stroke="black"/>
            </g>
        </g>
    </g>
    <defs>
        <marker overflow="visible" orient="auto" id="arrow1-2054266190">
            <path
                d="M 0.0 0.0 L -5.269444444444445 1.8819444444444446 L -5.269444444444445 0.0 L -5.269444444444445 -1.8819444444444446 z "
                latexdraw:arrSizeNum="2.0" fill="red"/>
        </marker>
    </defs>
    <metadata>
        <latexdraw:metadata>
            <latexdraw:latexIncludes/>
            <latexdraw:displayXScale>true</latexdraw:displayXScale>
            <latexdraw:displayYScale>true</latexdraw:displayYScale>
            <latexdraw:unit>CM</latexdraw:unit>
            <latexdraw:zoom>0.95</latexdraw:zoom>
            <latexdraw:magneticGridStyle>CUSTOMISED</latexdraw:magneticGridStyle>
            <latexdraw:gridGap>20</latexdraw:gridGap>
            <latexdraw:magneticGrid>true</latexdraw:magneticGrid>
            <latexdraw:version>3.3.6</latexdraw:version>
            <latexdraw:size>
                <latexdraw:width>1442</latexdraw:width>
                <latexdraw:height>905</latexdraw:height>
            </latexdraw:size>
            <latexdraw:position>
                <latexdraw:x>0.0</latexdraw:x>
                <latexdraw:y>0.0</latexdraw:y>
            </latexdraw:position>
        </latexdraw:metadata>
    </metadata>
</svg>
